<?xml version="1.0" ?><svg id="Layer_1" style="enable-background:new 0 0 400 400;" version="1.1" viewBox="0 0 400 400" xml:space="preserve" xmlns="http://www.w3.org/2000/svg" xmlns:xlink="http://www.w3.org/1999/xlink"><style type="text/css">
	.st0{fill:#FFFFFF;}
	.st1{fill:#333333;}
	.st2{fill:none;stroke:#333333;stroke-width:10;stroke-miterlimit:10;}
	.st3{fill:none;stroke:#333333;stroke-width:20;stroke-miterlimit:10;}
	.st4{fill:none;stroke:#333333;stroke-width:10;stroke-linecap:round;stroke-linejoin:round;stroke-miterlimit:10;}
</style><g><path class="st1" d="M353.7,64.7c-0.7-15.5-12.8-27.6-28.3-28.3c-33.1-1.4-77.5,1.8-101.1,25.4c-14.9,14.9-37.8,42.6-58,68.2   c-9.9-2.2-31.8-5.3-44.9,6.6c-11.9,10.7-31.7,29.3-42.9,39.8c-3.5,3.3-1.7,9.2,3,10l48.5,9.8l-3.7,13c-0.3,1-0.2,2,0.1,3   c0,0,0,0,0,0c0.2,2.1,1.6,3.9,3.8,4.4c0.1,0,0.1,0,0.2,0.1l-47.1,26.8l24.8,0.7l-62,51.6l48.9-10.3l-46.8,78.5l90.2-76.4l2.1,27.5   l32.8-56.1c0.1,0.4,0.2,0.8,0.3,1.1c0.5,2.1,2.3,3.6,4.4,3.8c0.5,0.2,1.1,0.3,1.6,0.3c0.5,0,0.9-0.1,1.4-0.2l13-3.7l9.8,48.5   c0.8,4.7,6.7,6.5,10,3c10.6-11.2,29.1-30.9,39.8-42.9c11.8-13.2,8.8-35,6.6-44.9c25.5-20.3,53.2-43.1,68.2-58   C351.9,142.2,355.1,97.8,353.7,64.7z M181.9,253.2C181.9,253.1,181.9,253.1,181.9,253.2c-6.9-21.4-23.6-38.1-45-45c0,0,0,0,0,0   l2.6-9.1c22.9,10.5,41,28.7,51.5,51.5L181.9,253.2z M148.5,269.7l1.5-7.8l-24.8,16.5l7.8-21.9l-30.5,11.5l30.1-31.5l-11.9-3.3   l22-12.1c0.7,0.4,1.5,0.8,2.2,1.2c3.2,1.8,6.2,3.9,9,6.3c2.7,2.2,5.1,4.7,7.3,7.3c2.4,2.8,4.5,5.8,6.3,9c0.7,1.2,1.3,2.4,1.9,3.7   L148.5,269.7z M199.7,245.4c-11.4-24.3-30.8-43.6-55-55c17.5-22.9,68.5-89.1,93.7-114.4c14.2-14.2,45.6-21.4,86.1-19.6   c5,0.2,9,4.2,9.2,9.2c1.8,40.5-5.4,71.9-19.6,86.1C288.8,177,222.6,228,199.7,245.4z"/><path class="st1" d="M239.3,92c-7.8,7.8-12.2,18.3-12.2,29.4c0,11.1,4.3,21.5,12.2,29.3c8.1,8.1,18.7,12.1,29.3,12.1   c5.3,0,10.6-1,15.6-3c5-2,9.7-5.1,13.7-9.1c16.2-16.2,16.2-42.5,0-58.7C281.9,75.9,255.5,75.9,239.3,92z M291,143.7   c-12.3,12.3-32.3,12.3-44.6,0c-5.9-5.9-9.2-13.9-9.2-22.3c0-8.4,3.3-16.3,9.2-22.3c6.1-6.1,14.2-9.2,22.3-9.2   c8.1,0,16.1,3.1,22.3,9.2C303.2,111.4,303.2,131.4,291,143.7z"/></g></svg>